<svg xmlns="http://www.w3.org/2000/svg" viewBox="0 0 1600 1000"><defs><linearGradient id="bg" x1="0" y1="0" x2="1" y2="1"><stop stop-color="#0c0a08"/><stop offset="1" stop-color="#31271e"/></linearGradient><filter id="s"><feDropShadow dx="0" dy="18" stdDeviation="22" flood-opacity=".34"/></filter></defs><rect width="1600" height="1000" fill="url(#bg)"/><rect x="760" y="120" width="610" height="720" rx="12" fill="#eee5d7" transform="rotate(2 1065 480)" filter="url(#s)"/><text x="825" y="205" fill="#17120f" font-family="Georgia" font-size="42">ROOM PROCUREMENT</text><text x="825" y="245" fill="#9b7448" font-family="Arial" font-size="17" font-weight="700" letter-spacing="4">SOURCE · VERIFY · BUY · CLOSE</text><rect x="825" y="300" width="470" height="11" fill="#c8b59b"/><rect x="825" y="345" width="390" height="11" fill="#c8b59b"/><rect x="825" y="390" width="440" height="11" fill="#c8b59b"/><rect x="825" y="465" width="132" height="132" rx="8" fill="#8a7967"/><rect x="980" y="465" width="132" height="132" rx="8" fill="#c1ad93"/><rect x="1135" y="465" width="132" height="132" rx="8" fill="#5d5248"/><rect x="825" y="650" width="442" height="86" rx="8" fill="#17120f"/><text x="1046" y="704" text-anchor="middle" fill="#f5efe4" font-family="Arial" font-size="20" font-weight="700">VERIFY BEFORE BUY</text><rect x="210" y="180" width="390" height="290" rx="8" fill="#f5efe4" transform="rotate(-7 405 325)" filter="url(#s)"/><text x="260" y="250" fill="#9b7448" font-family="Arial" font-size="16" font-weight="700">SHORTLIST</text><rect x="260" y="290" width="115" height="110" rx="8" fill="#8d7d6c"/><rect x="395" y="290" width="115" height="110" rx="8" fill="#c8b59b"/><rect x="235" y="560" width="440" height="250" rx="8" fill="#17130f" transform="rotate(4 455 685)" filter="url(#s)"/><circle cx="310" cy="640" r="18" fill="#b38a57"/><circle cx="385" cy="640" r="18" fill="#6e6258"/><circle cx="460" cy="640" r="18" fill="#c9b59a"/><path d="M300 710h300M300 755h240" stroke="#d4c5b1" stroke-width="5"/><text x="90" y="915" fill="#d8c8b4" font-family="Arial" font-size="18" letter-spacing="5">VELUCE STUDIO · THE SOURCE METHOD</text></svg>